<svg width="138" height="22" viewBox="0 0 138 22" fill="none" xmlns="http://www.w3.org/2000/svg">
<path d="M10.98 0.339203L13.4451 7.78406H21.4226L14.9687 12.3852L17.4339 19.8301L10.98 15.2289L4.52611 19.8301L6.99127 12.3852L0.537398 7.78406H8.51482L10.98 0.339203Z" fill="#EFD90E"/>
<path d="M39.9272 0.339188L42.3924 7.78405H50.3698L43.9159 12.3852L46.3811 19.8301L39.9272 15.2289L33.4733 19.8301L35.9385 12.3852L29.4846 7.78405H37.4621L39.9272 0.339188Z" fill="#EFD90E"/>
<path d="M68.8744 0.339188L71.3396 7.78405H79.317L72.8631 12.3852L75.3283 19.8301L68.8744 15.2289L62.4206 19.8301L64.8857 12.3852L58.4319 7.78405H66.4093L68.8744 0.339188Z" fill="#EFD90E"/>
<path d="M97.8217 0.339188L100.287 7.78405H108.264L101.81 12.3852L104.276 19.8301L97.8217 15.2289L91.3678 19.8301L93.8329 12.3852L87.3791 7.78405H95.3565L97.8217 0.339188Z" fill="#EFD90E"/>
<path d="M126.769 0.339188L129.234 7.78405H137.211L130.758 12.3852L133.223 19.8301L126.769 15.2289L120.315 19.8301L122.78 12.3852L116.326 7.78405H124.304L126.769 0.339188Z" fill="#EFD90E"/>
</svg>
